<?xml version="1.0" encoding="UTF-8"?>
<svg width="318px" height="69px" viewBox="0 0 318 69" version="1.1" xmlns="http://www.w3.org/2000/svg" xmlns:xlink="http://www.w3.org/1999/xlink">
    <title>Artboard Copy</title>
    <defs>
        <linearGradient x1="21.3185518%" y1="90.9610032%" x2="78.6811963%" y2="9.03869455%" id="linearGradient-1">
            <stop stop-color="#283274" offset="0%"></stop>
            <stop stop-color="#283375" offset="70.88%"></stop>
            <stop stop-color="#273F88" offset="96.7%"></stop>
        </linearGradient>
        <linearGradient x1="24.3375173%" y1="76.4362847%" x2="58.5065278%" y2="35.6313456%" id="linearGradient-2">
            <stop stop-color="#BFC8E6" offset="0%"></stop>
            <stop stop-color="#B6BEDD" offset="7.72%"></stop>
            <stop stop-color="#9FA4C9" offset="20.39%"></stop>
            <stop stop-color="#7F82AE" offset="36.42%"></stop>
            <stop stop-color="#585C92" offset="55.19%"></stop>
            <stop stop-color="#283375" offset="75.82%"></stop>
        </linearGradient>
    </defs>
    <g id="Artboard-Copy" stroke="none" stroke-width="1" fill="none" fill-rule="evenodd">
        <g id="bbb-light" transform="translate(2.000000, 2.000000)" fill-rule="nonzero">
            <g id="icon" transform="translate(32.525229, 32.525223) scale(-1, 1) rotate(-180.000000) translate(-32.525229, -32.525223) translate(-0.000000, 0.000000)">
                <path d="M65.050458,32.5251412 C65.050458,14.5618378 50.4886175,0 32.5251471,0 C14.5620044,0 0,14.5618378 0,32.5251412 C0,50.4882806 14.5620044,65.0504462 32.5251471,65.0504462 C50.4886175,65.0504462 65.050458,50.4882806 65.050458,32.5251412 Z" id="Path" stroke="#5D6AA5" stroke-width="2.94953194" fill="url(#linearGradient-1)"></path>
                <path d="M32.6141246,63.7016909 C40.8564285,63.64057 49.7089578,60.3434852 56.1014134,52.7305801 C55.829401,46.200317 44.1417158,39.506191 34.3877767,32.1362946 C26.2036441,25.9524376 13.6799304,20.1533306 5.11481657,17.8749812 C-3.02884185,33.4668611 2.89447427,48.4553978 13.1067379,56.8805712 C17.8846524,61.0612046 25.0846244,63.7575681 32.6141246,63.7016909 Z" id="Path" fill="url(#linearGradient-2)"></path>
                <path d="M50.1233671,24.4352312 C50.1233671,21.6883979 49.1564121,19.3481084 47.2238131,17.4155097 C45.290067,15.481764 42.9509241,14.5161201 40.2040903,14.5161201 L28.3772855,14.5161201 C25.6302878,14.5161201 23.2899979,15.4819279 21.3573988,17.4155097 C19.4236527,19.3481084 18.4580087,21.6883979 18.4580087,24.4352312 L18.4580087,54.11686 C20.5646301,54.11686 22.36237,53.0866541 23.8528669,51.0265701 C25.3430362,48.9664861 26.0882846,46.4865855 26.0882846,43.5871958 L26.0882846,24.4352312 C26.0882846,22.9093402 26.8512303,22.1462308 28.3774493,22.1462308 L40.2042542,22.1462308 C41.7301455,22.1462308 42.493255,22.9091763 42.493255,24.4352312 L42.493255,33.5152006 C42.493255,34.9899665 41.7303094,35.752912 40.2042542,35.8043649 L37.9150894,35.8043649 C34.9644102,35.9069431 32.4714,36.6770986 30.4375337,38.1159784 C28.4023565,39.5537113 27.3854233,41.3267075 27.3854233,43.4344756 L40.2042542,43.4344756 C42.951088,43.4344756 45.2902309,42.4675208 47.2239769,40.535086 C49.156576,38.6013403 50.1233671,36.2621978 50.1233671,33.5152006 L50.1233671,24.4352312 L50.1233671,24.4352312 Z" id="Path" fill="#757575"></path>
                <path d="M49.5623005,24.0467124 C49.5623005,21.2998791 48.5953456,18.9595896 46.6627465,17.0269909 C44.7290004,15.0932451 42.3898575,14.1276012 39.6430237,14.1276012 L27.8162189,14.1276012 C25.0693851,14.1276012 22.7290952,15.093409 20.7964961,17.0269909 C18.86275,18.9595896 17.897106,21.2998791 17.897106,24.0467124 L17.897106,53.7281773 C20.0037274,53.7281773 21.8016312,52.6979714 23.2918004,50.6378874 C24.7819696,48.5778034 25.5272181,46.0979027 25.5272181,43.1985131 L25.5272181,24.0467124 C25.5272181,22.5206575 26.2901637,21.7577119 27.8162189,21.7577119 L39.6430237,21.7577119 C41.1689151,21.7577119 41.9320246,22.5206575 41.9320246,24.0467124 L41.9320246,33.1266818 C41.9320246,34.6014476 41.1690789,35.3643931 39.6430237,35.4156822 L37.353859,35.4156822 C34.4031798,35.5180965 31.9101696,36.2884158 29.8763033,37.7272957 C27.8412899,39.1650285 26.8243568,40.9380248 26.8243568,43.0457929 L39.6431876,43.0457929 C42.3900214,43.0457929 44.7291643,42.0788381 46.6629104,40.1464033 C48.5955094,38.2126575 49.5623005,35.8735151 49.5623005,33.1266818 L49.5623005,24.0467124 L49.5623005,24.0467124 Z" id="Path" fill="#FFFFFF"></path>
            </g>
            <g id="text" transform="translate(77.218090, 23.289460)" fill="#FFFFFF">
                <g id="Group" transform="translate(-0.000000, 0.000000)">
                    <path d="M0,25.9709027 C1.18591011,26.1176155 3.07599593,26.3010065 5.59604212,26.3010065 C10.191559,26.3010065 13.1193289,25.5306629 14.8982453,24.0267553 C16.3064943,22.8162733 17.2700655,21.0921952 17.2700655,18.8913004 C17.2700655,15.5165006 14.8611888,13.4623186 12.2298708,12.8020097 L12.2298708,12.6919751 C14.9353018,11.7015623 16.3807097,9.64738034 16.3807097,7.37312917 C16.3807097,5.24548949 15.3429232,3.63154728 13.7864481,2.71449091 C12.1187013,1.57736533 10.0062765,1.13712558 6.67088512,1.13712558 C4.07662358,1.13712558 1.44530555,1.393873 0,1.68739993 L0,25.9709027 Z M4.52130149,4.65863826 C5.00313825,4.54860365 5.78142695,4.47524725 7.11556303,4.47524725 C10.0062765,4.47524725 11.7851928,5.53901643 11.7851928,7.886624 C11.7851928,9.97748415 10.043333,11.4448149 6.85616758,11.4448149 L4.52130149,11.4448149 L4.52130149,4.65863826 Z M4.52130149,14.7094788 L6.7820546,14.7094788 C9.93216352,14.7094788 12.4893686,15.8832826 12.4893686,18.7811645 C12.4893686,21.8258606 9.85805053,22.8896298 6.93028057,22.8896298 C5.89259642,22.8896298 5.11430773,22.8896298 4.52130149,22.7795951 L4.52130149,14.7094788 Z" id="Shape"></path>
                    <path d="M25.7195599,26.0442591 L25.7195599,8.18004961 L21.1614066,8.18004961 L21.1614066,26.0442591 L25.7195599,26.0442591 Z M23.4593186,0.733665361 C21.9396953,0.733665361 20.9020112,1.79743454 20.9020112,3.19130754 C20.9020112,4.51192545 21.9026388,5.61237283 23.4224668,5.61237283 C25.0152818,5.61237283 26.0164213,4.51192545 26.0164213,3.19130754 C25.9754749,1.79743454 25.0152818,0.733665361 23.4593186,0.733665361 Z" id="Shape"></path>
                    <path d="M46.9922383,13.3156058 C46.9922383,10.8578623 47.0638945,9.39063292 47.140669,8.18004961 L43.1750102,8.18004961 L42.9897277,10.5644367 L42.9180715,10.5644367 C42.0653627,9.09710598 40.4715241,7.77658939 37.6922872,7.77658939 C33.3560635,7.77658939 29.5019836,11.3347803 29.5019836,17.2039005 C29.5019836,22.265999 32.6896608,25.9342245 37.1732916,25.9342245 C39.5819636,25.9342245 41.3979364,24.8704553 42.4359277,23.29309 L42.5075839,23.29309 L42.5075839,24.8337771 C42.5075839,28.6853936 40.2831707,30.2259794 37.3186513,30.2259794 C35.1321136,30.2259794 33.2045618,29.5290936 32.0560153,28.8687846 L31.0558994,32.2801614 C32.6118626,33.1972177 35.05841,33.7108139 37.3555031,33.7108139 C39.8389022,33.7108139 42.4697084,33.1972177 44.3235567,31.5465973 C46.2132331,29.8591974 46.9912147,27.1813847 46.9912147,23.4398028 L46.9922383,13.3156058 Z M42.4338803,18.2309915 C42.4338803,18.7444863 42.3929339,19.3681171 42.2485979,19.8083568 C41.7296023,21.4589772 40.2473426,22.5594246 38.5429487,22.5594246 C35.6889846,22.5594246 34.1319977,20.1017824 34.1319977,17.0571877 C34.1319977,13.4256404 36.0226978,11.2247457 38.5798004,11.2247457 C40.5073522,11.2247457 41.8043294,12.4719059 42.2854496,14.1226276 C42.3970286,14.4894096 42.4338803,14.8928698 42.4338803,15.3331096 L42.4338803,18.2309915 Z" id="Shape"></path>
                    <path d="M52.0695919,25.9709027 C53.2560139,26.1176155 55.1456902,26.3010065 57.6659411,26.3010065 C62.2611509,26.3010065 65.1888185,25.5306629 66.9679396,24.0267553 C68.3764957,22.8162733 69.3397598,21.0921952 69.3397598,18.8913004 C69.3397598,15.5165006 66.9310878,13.4623186 64.2992579,12.8020097 L64.2992579,12.6919751 C67.0047913,11.7015623 68.4501992,9.64738034 68.4501992,7.37312917 C68.4501992,5.24548949 67.412208,3.63154728 65.8562448,2.71449091 C64.1887027,1.57736533 62.0758684,1.13712558 58.7407841,1.13712558 C56.1468297,1.13712558 53.5149998,1.393873 52.0695919,1.68739993 L52.0695919,25.9709027 Z M56.5910981,4.65863826 C57.073242,4.54860365 57.8512236,4.47524725 59.1850526,4.47524725 C62.0758684,4.47524725 63.8549895,5.53901643 63.8549895,7.886624 C63.8549895,9.97748415 62.1127202,11.4448149 58.9260666,11.4448149 L56.5910981,11.4448149 L56.5910981,4.65863826 Z M56.5910981,14.7094788 L58.8513394,14.7094788 C62.0021649,14.7094788 64.5592676,15.8832826 64.5592676,18.7811645 C64.5592676,21.8258606 61.9274377,22.8896298 58.9997701,22.8896298 C57.9628025,22.8896298 57.1837973,22.8896298 56.5910981,22.7795951 L56.5910981,14.7094788 Z" id="Shape"></path>
                    <polygon id="Path" points="73.2306914 26.0442591 77.7890494 26.0442591 77.7890494 0 73.2306914 0"></polygon>
                    <path d="M98.9143208,8.18004961 L94.3559629,8.18004961 L94.3559629,18.9646569 C94.3559629,19.4781517 94.2843067,19.9917478 94.0959532,20.3585299 C93.6516848,21.5323336 92.4652628,22.7795951 90.6124382,22.7795951 C88.2037663,22.7795951 87.2394785,20.872126 87.2394785,17.9008877 L87.2394785,8.18004961 L82.6811206,8.18004961 L82.6811206,18.6711299 C82.6811206,24.503572 85.6835153,26.4477193 88.9448961,26.4477193 C92.2062769,26.4477193 93.9853979,24.6137079 94.7633795,23.3664464 L94.8739348,23.3664464 L95.0970927,26.0442591 L99.0617279,26.0442591 C98.9900717,24.5769284 98.9143208,22.8162733 98.9143208,20.6886337 L98.9143208,8.18004961 Z" id="Path"></path>
                    <path d="M119.149008,18.3777043 C119.220664,17.9742441 119.297439,17.3139351 119.297439,16.4702352 C119.297439,12.5452623 117.369887,7.77658939 111.514552,7.77658939 C105.73292,7.77658939 102.693674,12.4352277 102.693674,17.3872915 C102.693674,22.8529516 106.140337,26.4110411 111.996696,26.4110411 C114.59065,26.4110411 116.740336,25.9342245 118.296299,25.2739155 L117.628873,22.1926426 C116.22134,22.6695605 114.739081,22.9996644 112.626247,22.9996644 C109.698579,22.9996644 107.178328,21.60569 107.066749,18.3777043 L119.149008,18.3777043 Z M107.066749,15.223075 C107.252032,13.3889622 108.438453,10.8578623 111.254542,10.8578623 C114.293789,10.8578623 115.034919,13.5723532 114.998067,15.223075 L107.066749,15.223075 Z" id="Shape"></path>
                    <path d="M123.151519,25.9709027 C124.336917,26.1176155 126.227617,26.3010065 128.747868,26.3010065 C133.343078,26.3010065 136.270745,25.5306629 138.049866,24.0267553 C139.457399,22.8162733 140.421687,21.0921952 140.421687,18.8913004 C140.421687,15.5165006 138.013015,13.4623186 135.381185,12.8020097 L135.381185,12.6919751 C138.086718,11.7015623 139.532126,9.64738034 139.532126,7.37312917 C139.532126,5.24548949 138.494135,3.63154728 136.938172,2.71449091 C135.269606,1.57736533 133.157795,1.13712558 129.822711,1.13712558 C127.227733,1.13712558 124.596927,1.393873 123.151519,1.68739993 L123.151519,25.9709027 Z M127.673025,4.65863826 C128.154145,4.54860365 128.93315,4.47524725 130.266979,4.47524725 C133.157795,4.47524725 134.936916,5.53901643 134.936916,7.886624 C134.936916,9.97748415 133.194647,11.4448149 130.007993,11.4448149 L127.673025,11.4448149 L127.673025,4.65863826 Z M127.673025,14.7094788 L129.933266,14.7094788 C133.083068,14.7094788 135.641194,15.8832826 135.641194,18.7811645 C135.641194,21.8258606 133.009364,22.8896298 130.081697,22.8896298 C129.043706,22.8896298 128.265724,22.8896298 127.673025,22.7795951 L127.673025,14.7094788 Z" id="Shape"></path>
                    <path d="M160.471091,8.18004961 L155.912733,8.18004961 L155.912733,18.9646569 C155.912733,19.4781517 155.841077,19.9917478 155.652724,20.3585299 C155.208455,21.5323336 154.023057,22.7795951 152.169209,22.7795951 C149.760537,22.7795951 148.797273,20.872126 148.797273,17.9008877 L148.797273,8.18004961 L144.238915,8.18004961 L144.238915,18.6711299 C144.238915,24.503572 147.240286,26.4477193 150.501667,26.4477193 C153.763047,26.4477193 155.542168,24.6137079 156.32015,23.3664464 L156.431729,23.3664464 L156.653863,26.0442591 L160.619522,26.0442591 C160.547866,24.5769284 160.471091,22.8162733 160.471091,20.6886337 L160.471091,8.18004961 Z" id="Path"></path>
                    <path d="M166.141144,4.84202927 L166.141144,8.18004961 L163.584041,8.18004961 L163.584041,11.5548495 L166.141144,11.5548495 L166.141144,19.9550696 C166.141144,22.3026772 166.586436,23.9533989 167.586552,24.9804899 C168.439261,25.8975463 169.809941,26.4477193 171.515359,26.4477193 C172.922892,26.4477193 174.146165,26.2276501 174.813592,25.9709027 L174.741935,22.5594246 C174.223963,22.7062387 173.778671,22.7429169 172.963838,22.7429169 C171.221569,22.7429169 170.628869,21.6423682 170.628869,19.4414735 L170.628869,11.5548495 L174.965093,11.5548495 L174.965093,8.18004961 L170.628869,8.18004961 L170.628869,3.59486908 L166.141144,4.84202927 Z" id="Path"></path>
                    <path d="M179.149815,4.84202927 L179.149815,8.18004961 L176.592713,8.18004961 L176.592713,11.5548495 L179.149815,11.5548495 L179.149815,19.9550696 C179.149815,22.3026772 179.594084,23.9533989 180.595223,24.9804899 C181.446908,25.8975463 182.818613,26.4477193 184.523007,26.4477193 C185.931563,26.4477193 187.154837,26.2276501 187.821239,25.9709027 L187.749583,22.5594246 C187.230587,22.7062387 186.786319,22.7429169 185.970462,22.7429169 C184.229216,22.7429169 183.635493,21.6423682 183.635493,19.4414735 L183.635493,11.5548495 L187.971717,11.5548495 L187.971717,8.18004961 L183.635493,8.18004961 L183.635493,3.59486908 L179.149815,4.84202927 Z" id="Path"></path>
                    <path d="M199.384503,7.77658939 C193.936584,7.77658939 190.045652,11.3714585 190.045652,17.2405787 C190.045652,22.9996644 194.010288,26.4477193 199.087641,26.4477193 C203.683875,26.4477193 208.352788,23.5131592 208.352788,16.9471531 C208.352788,11.5181713 204.757694,7.77658939 199.384503,7.77658939 Z M199.272924,11.0412533 C202.385874,11.0412533 203.645999,14.2693404 203.645999,17.0571877 C203.645999,20.6886337 201.830026,23.1830554 199.236072,23.1830554 C196.493687,23.1830554 194.751417,20.5785991 194.751417,17.1305441 C194.751417,14.1593058 196.049418,11.0412533 199.272924,11.0412533 L199.272924,11.0412533 Z" id="Shape"></path>
                    <path d="M212.096312,26.0442591 L216.65467,26.0442591 L216.65467,15.5165006 C216.65467,15.0030058 216.726327,14.4527314 216.876805,14.0859494 C217.358948,12.7286533 218.619074,11.4448149 220.435047,11.4448149 C222.917422,11.4448149 223.88171,13.3889622 223.88171,15.9567403 L223.88171,26.0442591 L228.440068,26.0442591 L228.440068,15.4431442 C228.440068,9.79409314 225.178687,7.77658939 222.027862,7.77658939 C219.026491,7.77658939 217.062087,9.46398933 216.247254,10.8578623 L216.135675,10.8578623 L215.913541,8.18004961 L211.947882,8.18004961 C212.019538,9.72073674 212.096312,11.4448149 212.096312,13.4989968 L212.096312,26.0442591 Z" id="Path"></path>
                    <path d="M0,25.9709027 C1.18591011,26.1176155 3.07599593,26.3010065 5.59604212,26.3010065 C10.191559,26.3010065 13.1193289,25.5306629 14.8982453,24.0267553 C16.3064943,22.8162733 17.2700655,21.0921952 17.2700655,18.8913004 C17.2700655,15.5165006 14.8611888,13.4623186 12.2298708,12.8020097 L12.2298708,12.6919751 C14.9353018,11.7015623 16.3807097,9.64738034 16.3807097,7.37312917 C16.3807097,5.24548949 15.3429232,3.63154728 13.7864481,2.71449091 C12.1187013,1.57736533 10.0062765,1.13712558 6.67088512,1.13712558 C4.07662358,1.13712558 1.44530555,1.393873 0,1.68739993 L0,25.9709027 Z M4.52130149,4.65863826 C5.00313825,4.54860365 5.78142695,4.47524725 7.11556303,4.47524725 C10.0062765,4.47524725 11.7851928,5.53901643 11.7851928,7.886624 C11.7851928,9.97748415 10.043333,11.4448149 6.85616758,11.4448149 L4.52130149,11.4448149 L4.52130149,4.65863826 Z M4.52130149,14.7094788 L6.7820546,14.7094788 C9.93216352,14.7094788 12.4893686,15.8832826 12.4893686,18.7811645 C12.4893686,21.8258606 9.85805053,22.8896298 6.93028057,22.8896298 C5.89259642,22.8896298 5.11430773,22.8896298 4.52130149,22.7795951 L4.52130149,14.7094788 Z" id="Shape"></path>
                    <path d="M25.7195599,26.0442591 L25.7195599,8.18004961 L21.1614066,8.18004961 L21.1614066,26.0442591 L25.7195599,26.0442591 Z M23.4593186,0.733665361 C21.9396953,0.733665361 20.9020112,1.79743454 20.9020112,3.19130754 C20.9020112,4.51192545 21.9026388,5.61237283 23.4224668,5.61237283 C25.0152818,5.61237283 26.0164213,4.51192545 26.0164213,3.19130754 C25.9754749,1.79743454 25.0152818,0.733665361 23.4593186,0.733665361 Z" id="Shape"></path>
                    <path d="M46.9922383,13.3156058 C46.9922383,10.8578623 47.0638945,9.39063292 47.140669,8.18004961 L43.1750102,8.18004961 L42.9897277,10.5644367 L42.9180715,10.5644367 C42.0653627,9.09710598 40.4715241,7.77658939 37.6922872,7.77658939 C33.3560635,7.77658939 29.5019836,11.3347803 29.5019836,17.2039005 C29.5019836,22.265999 32.6896608,25.9342245 37.1732916,25.9342245 C39.5819636,25.9342245 41.3979364,24.8704553 42.4359277,23.29309 L42.5075839,23.29309 L42.5075839,24.8337771 C42.5075839,28.6853936 40.2831707,30.2259794 37.3186513,30.2259794 C35.1321136,30.2259794 33.2045618,29.5290936 32.0560153,28.8687846 L31.0558994,32.2801614 C32.6118626,33.1972177 35.05841,33.7108139 37.3555031,33.7108139 C39.8389022,33.7108139 42.4697084,33.1972177 44.3235567,31.5465973 C46.2132331,29.8591974 46.9912147,27.1813847 46.9912147,23.4398028 L46.9922383,13.3156058 Z M42.4338803,18.2309915 C42.4338803,18.7444863 42.3929339,19.3681171 42.2485979,19.8083568 C41.7296023,21.4589772 40.2473426,22.5594246 38.5429487,22.5594246 C35.6889846,22.5594246 34.1319977,20.1017824 34.1319977,17.0571877 C34.1319977,13.4256404 36.0226978,11.2247457 38.5798004,11.2247457 C40.5073522,11.2247457 41.8043294,12.4719059 42.2854496,14.1226276 C42.3970286,14.4894096 42.4338803,14.8928698 42.4338803,15.3331096 L42.4338803,18.2309915 Z" id="Shape"></path>
                    <path d="M52.0695919,25.9709027 C53.2560139,26.1176155 55.1456902,26.3010065 57.6659411,26.3010065 C62.2611509,26.3010065 65.1888185,25.5306629 66.9679396,24.0267553 C68.3764957,22.8162733 69.3397598,21.0921952 69.3397598,18.8913004 C69.3397598,15.5165006 66.9310878,13.4623186 64.2992579,12.8020097 L64.2992579,12.6919751 C67.0047913,11.7015623 68.4501992,9.64738034 68.4501992,7.37312917 C68.4501992,5.24548949 67.412208,3.63154728 65.8562448,2.71449091 C64.1887027,1.57736533 62.0758684,1.13712558 58.7407841,1.13712558 C56.1468297,1.13712558 53.5149998,1.393873 52.0695919,1.68739993 L52.0695919,25.9709027 Z M56.5910981,4.65863826 C57.073242,4.54860365 57.8512236,4.47524725 59.1850526,4.47524725 C62.0758684,4.47524725 63.8549895,5.53901643 63.8549895,7.886624 C63.8549895,9.97748415 62.1127202,11.4448149 58.9260666,11.4448149 L56.5910981,11.4448149 L56.5910981,4.65863826 Z M56.5910981,14.7094788 L58.8513394,14.7094788 C62.0021649,14.7094788 64.5592676,15.8832826 64.5592676,18.7811645 C64.5592676,21.8258606 61.9274377,22.8896298 58.9997701,22.8896298 C57.9628025,22.8896298 57.1837973,22.8896298 56.5910981,22.7795951 L56.5910981,14.7094788 Z" id="Shape"></path>
                    <polygon id="Path" points="73.2306914 26.0442591 77.7890494 26.0442591 77.7890494 0 73.2306914 0"></polygon>
                    <path d="M98.9143208,8.18004961 L94.3559629,8.18004961 L94.3559629,18.9646569 C94.3559629,19.4781517 94.2843067,19.9917478 94.0959532,20.3585299 C93.6516848,21.5323336 92.4652628,22.7795951 90.6124382,22.7795951 C88.2037663,22.7795951 87.2394785,20.872126 87.2394785,17.9008877 L87.2394785,8.18004961 L82.6811206,8.18004961 L82.6811206,18.6711299 C82.6811206,24.503572 85.6835153,26.4477193 88.9448961,26.4477193 C92.2062769,26.4477193 93.9853979,24.6137079 94.7633795,23.3664464 L94.8739348,23.3664464 L95.0970927,26.0442591 L99.0617279,26.0442591 C98.9900717,24.5769284 98.9143208,22.8162733 98.9143208,20.6886337 L98.9143208,8.18004961 Z" id="Path"></path>
                    <path d="M119.149008,18.3777043 C119.220664,17.9742441 119.297439,17.3139351 119.297439,16.4702352 C119.297439,12.5452623 117.369887,7.77658939 111.514552,7.77658939 C105.73292,7.77658939 102.693674,12.4352277 102.693674,17.3872915 C102.693674,22.8529516 106.140337,26.4110411 111.996696,26.4110411 C114.59065,26.4110411 116.740336,25.9342245 118.296299,25.2739155 L117.628873,22.1926426 C116.22134,22.6695605 114.739081,22.9996644 112.626247,22.9996644 C109.698579,22.9996644 107.178328,21.60569 107.066749,18.3777043 L119.149008,18.3777043 Z M107.066749,15.223075 C107.252032,13.3889622 108.438453,10.8578623 111.254542,10.8578623 C114.293789,10.8578623 115.034919,13.5723532 114.998067,15.223075 L107.066749,15.223075 Z" id="Shape"></path>
                    <path d="M123.151519,25.9709027 C124.336917,26.1176155 126.227617,26.3010065 128.747868,26.3010065 C133.343078,26.3010065 136.270745,25.5306629 138.049866,24.0267553 C139.457399,22.8162733 140.421687,21.0921952 140.421687,18.8913004 C140.421687,15.5165006 138.013015,13.4623186 135.381185,12.8020097 L135.381185,12.6919751 C138.086718,11.7015623 139.532126,9.64738034 139.532126,7.37312917 C139.532126,5.24548949 138.494135,3.63154728 136.938172,2.71449091 C135.269606,1.57736533 133.157795,1.13712558 129.822711,1.13712558 C127.227733,1.13712558 124.596927,1.393873 123.151519,1.68739993 L123.151519,25.9709027 Z M127.673025,4.65863826 C128.154145,4.54860365 128.93315,4.47524725 130.266979,4.47524725 C133.157795,4.47524725 134.936916,5.53901643 134.936916,7.886624 C134.936916,9.97748415 133.194647,11.4448149 130.007993,11.4448149 L127.673025,11.4448149 L127.673025,4.65863826 Z M127.673025,14.7094788 L129.933266,14.7094788 C133.083068,14.7094788 135.641194,15.8832826 135.641194,18.7811645 C135.641194,21.8258606 133.009364,22.8896298 130.081697,22.8896298 C129.043706,22.8896298 128.265724,22.8896298 127.673025,22.7795951 L127.673025,14.7094788 Z" id="Shape"></path>
                    <path d="M160.471091,8.18004961 L155.912733,8.18004961 L155.912733,18.9646569 C155.912733,19.4781517 155.841077,19.9917478 155.652724,20.3585299 C155.208455,21.5323336 154.023057,22.7795951 152.169209,22.7795951 C149.760537,22.7795951 148.797273,20.872126 148.797273,17.9008877 L148.797273,8.18004961 L144.238915,8.18004961 L144.238915,18.6711299 C144.238915,24.503572 147.240286,26.4477193 150.501667,26.4477193 C153.763047,26.4477193 155.542168,24.6137079 156.32015,23.3664464 L156.431729,23.3664464 L156.653863,26.0442591 L160.619522,26.0442591 C160.547866,24.5769284 160.471091,22.8162733 160.471091,20.6886337 L160.471091,8.18004961 Z" id="Path"></path>
                    <path d="M166.141144,4.84202927 L166.141144,8.18004961 L163.584041,8.18004961 L163.584041,11.5548495 L166.141144,11.5548495 L166.141144,19.9550696 C166.141144,22.3026772 166.586436,23.9533989 167.586552,24.9804899 C168.439261,25.8975463 169.809941,26.4477193 171.515359,26.4477193 C172.922892,26.4477193 174.146165,26.2276501 174.813592,25.9709027 L174.741935,22.5594246 C174.223963,22.7062387 173.778671,22.7429169 172.963838,22.7429169 C171.221569,22.7429169 170.628869,21.6423682 170.628869,19.4414735 L170.628869,11.5548495 L174.965093,11.5548495 L174.965093,8.18004961 L170.628869,8.18004961 L170.628869,3.59486908 L166.141144,4.84202927 Z" id="Path"></path>
                    <path d="M179.149815,4.84202927 L179.149815,8.18004961 L176.592713,8.18004961 L176.592713,11.5548495 L179.149815,11.5548495 L179.149815,19.9550696 C179.149815,22.3026772 179.594084,23.9533989 180.595223,24.9804899 C181.446908,25.8975463 182.818613,26.4477193 184.523007,26.4477193 C185.931563,26.4477193 187.154837,26.2276501 187.821239,25.9709027 L187.749583,22.5594246 C187.230587,22.7062387 186.786319,22.7429169 185.970462,22.7429169 C184.229216,22.7429169 183.635493,21.6423682 183.635493,19.4414735 L183.635493,11.5548495 L187.971717,11.5548495 L187.971717,8.18004961 L183.635493,8.18004961 L183.635493,3.59486908 L179.149815,4.84202927 Z" id="Path"></path>
                    <path d="M199.384503,7.77658939 C193.936584,7.77658939 190.045652,11.3714585 190.045652,17.2405787 C190.045652,22.9996644 194.010288,26.4477193 199.087641,26.4477193 C203.683875,26.4477193 208.352788,23.5131592 208.352788,16.9471531 C208.352788,11.5181713 204.757694,7.77658939 199.384503,7.77658939 Z M199.272924,11.0412533 C202.385874,11.0412533 203.645999,14.2693404 203.645999,17.0571877 C203.645999,20.6886337 201.830026,23.1830554 199.236072,23.1830554 C196.493687,23.1830554 194.751417,20.5785991 194.751417,17.1305441 C194.751417,14.1593058 196.049418,11.0412533 199.272924,11.0412533 L199.272924,11.0412533 Z" id="Shape"></path>
                    <path d="M212.096312,26.0442591 L216.65467,26.0442591 L216.65467,15.5165006 C216.65467,15.0030058 216.726327,14.4527314 216.876805,14.0859494 C217.358948,12.7286533 218.619074,11.4448149 220.435047,11.4448149 C222.917422,11.4448149 223.88171,13.3889622 223.88171,15.9567403 L223.88171,26.0442591 L228.440068,26.0442591 L228.440068,15.4431442 C228.440068,9.79409314 225.178687,7.77658939 222.027862,7.77658939 C219.026491,7.77658939 217.062087,9.46398933 216.247254,10.8578623 L216.135675,10.8578623 L215.913541,8.18004961 L211.947882,8.18004961 C212.019538,9.72073674 212.096312,11.4448149 212.096312,13.4989968 L212.096312,26.0442591 Z" id="Path"></path>
                </g>
                <g id="TM" transform="translate(232.766148, 8.275254)">
                    <polygon id="Path" points="0.819 2.8757 1.344 2.8757 1.344 0.4394 2.172 0.4394 2.172 0 0 0 0 0.4394 0.819 0.4394"></polygon>
                    <path d="M4.979,2.8757 L5.491,2.8757 L5.325,0 L4.642,0 L4.245,1.152 C4.135,1.489 4.036,1.8432 3.96,2.1546 L3.95,2.1546 C3.88,1.8346 3.788,1.4933 3.685,1.1562 L3.31,0 L2.619,0 L2.427,2.8757 L2.917,2.8757 L2.977,1.7194 C2.997,1.3269 3.017,0.8704 3.027,0.4949 C3.107,0.8533 3.206,1.2458 3.317,1.6128 L3.701,2.8416 L4.102,2.8416 L4.525,1.5957 C4.653,1.233 4.772,0.8448 4.866,0.4949 L4.876,0.4949 C4.876,0.8832 4.896,1.3312 4.906,1.7024 L4.979,2.8757 Z" id="Path"></path>
                </g>
            </g>
        </g>
    </g>
</svg>