<?xml version="1.0" encoding="UTF-8"?>
<svg width="202px" height="50px" viewBox="0 0 202 50" version="1.1" xmlns="http://www.w3.org/2000/svg" xmlns:xlink="http://www.w3.org/1999/xlink">
    <title>Artboard</title>
    <g id="Artboard" stroke="none" stroke-width="1" fill="none" fill-rule="evenodd">
        <g id="Logotype-(Full)" transform="translate(0.000000, 0.000000)" fill-rule="nonzero">
            <path d="M45.3121211,29.7550416 C44.63126,33.2563611 39.2168266,37.0878805 32.9977072,37.8304778 C29.7546211,38.2178278 26.5619822,38.573075 23.1573239,38.4171472 C17.5890794,38.1620889 13.195585,37.0878805 13.195585,37.0878805 C13.195585,37.6301 13.2290989,38.1462139 13.2957739,38.6288139 C14.0196739,44.1236805 18.7447794,44.453175 23.2204711,44.6066333 C27.7377905,44.76115 31.75981,43.4925611 31.75981,43.4925611 L31.9457239,47.5770222 C31.9457239,47.5770222 28.7858933,49.2735305 23.1573239,49.5853861 C20.0532322,49.7561305 16.1994878,49.5074222 11.7103906,48.3196194 C1.97513501,45.7425777 0.300851675,35.3652666 0.0447350087,24.8355555 C-0.0335816579,21.7092389 0.0147488976,18.761075 0.0147488976,16.2958639 C0.0147488976,5.52838055 7.06924612,2.37243055 7.06924612,2.37243055 C10.6263044,0.738716666 16.7300656,0.0518583333 23.0754794,0 L23.2314072,0 C29.5768211,0.0518583333 35.6844628,0.738716666 39.2415211,2.37243055 C39.2415211,2.37243055 46.2960183,5.52838055 46.2960183,16.2958639 C46.2960183,16.2958639 46.3842128,24.2397139 45.3121211,29.7550416" id="Path" fill="#3088D4"></path>
            <path d="M9.78111945,13.6860844 C9.78111945,12.1186928 11.051825,10.84834 12.6188639,10.84834 C14.1862556,10.84834 15.4566083,12.1186928 15.4566083,13.6860844 C15.4566083,15.2531233 14.1862556,16.5238289 12.6188639,16.5238289 C11.051825,16.5238289 9.78111945,15.2531233 9.78111945,13.6860844 M50.47961,17.1308183 L50.47961,30.1680739 L45.3145905,30.1680739 L45.3145905,17.513935 C45.3145905,14.8462294 44.1920516,13.4926211 41.9469739,13.4926211 C39.4651822,13.4926211 38.220935,15.0988183 38.220935,18.2745239 L38.220935,25.20061 L33.0862544,25.20061 L33.0862544,18.2745239 C33.0862544,15.0988183 31.8420072,13.4926211 29.3602155,13.4926211 C27.1151378,13.4926211 25.9925989,14.8462294 25.9925989,17.513935 L25.9925989,30.1680739 L20.8275794,30.1680739 L20.8275794,17.1308183 C20.8275794,14.4662878 21.5059711,12.3489155 22.8687517,10.7822294 C24.2742183,9.21589611 26.11466,8.41297388 28.3988961,8.41297388 C31.04226,8.41297388 33.0439211,9.4286211 34.3668378,11.4606211 L35.6537711,13.6175044 L36.9403517,11.4606211 C38.2636211,9.4286211 40.2649294,8.41297388 42.9086461,8.41297388 C45.1928822,8.41297388 47.0329711,9.21589611 48.4384378,10.7822294 C49.8012183,12.3489155 50.47961,14.4662878 50.47961,17.1308183 M68.2731566,23.6117342 C69.3388983,22.4856675 69.85219,21.0675008 69.85219,19.3572342 C69.85219,17.6469675 69.3388983,16.2288008 68.2731566,15.1443619 C67.2469261,14.0179425 65.943765,13.4760758 64.3647316,13.4760758 C62.7853455,13.4760758 61.4825372,14.0179425 60.4563066,15.1443619 C59.4297233,16.2288008 58.9164316,17.6469675 58.9164316,19.3572342 C58.9164316,21.0675008 59.4297233,22.4856675 60.4563066,23.6117342 C61.4825372,24.696173 62.7853455,25.2383925 64.3647316,25.2383925 C65.943765,25.2383925 67.2469261,24.696173 68.2731566,23.6117342 M69.85219,8.92912305 L74.9452427,8.92912305 L74.9452427,29.7853453 L69.85219,29.7853453 L69.85219,27.3240147 C68.3126677,29.3680091 66.1804789,30.3691925 63.4171705,30.3691925 C60.7720427,30.3691925 58.5216733,29.3263814 56.6265511,27.1987786 C54.7712928,25.0715286 53.8237316,22.4436869 53.8237316,19.3572342 C53.8237316,16.3124092 54.7712928,13.6842147 56.6265511,11.5569647 C58.5216733,9.42971472 60.7720427,8.34527583 63.4171705,8.34527583 C66.1804789,8.34527583 68.3126677,9.34645916 69.85219,11.3901008 L69.85219,8.92912305 L69.85219,8.92912305 Z M92.0805061,18.9818786 C93.5805172,20.1079453 94.3308755,21.6929758 94.2913644,23.6949897 C94.2913644,25.8225925 93.5410061,27.4908786 92.0014838,28.6589258 C90.4616088,29.7853453 88.6063505,30.3691925 86.3559811,30.3691925 C82.2895116,30.3691925 79.5258505,28.7005536 78.0649977,25.4052564 L82.4870672,22.7777675 C83.0790283,24.5709369 84.3818366,25.4888647 86.3559811,25.4888647 C88.1717283,25.4888647 89.0801311,24.9046647 89.0801311,23.6949897 C89.0801311,22.8190425 87.8955033,22.0267036 85.4874422,21.4012286 C84.5790394,21.1507564 83.8290338,20.9006369 83.2370727,20.6917925 C82.408045,20.3584175 81.6975505,19.9827092 81.1052366,19.524098 C79.6443838,18.3980314 78.8943783,16.8959036 78.8943783,14.977498 C78.8943783,12.9335036 79.6048727,11.3068453 81.0262144,10.138798 C82.4870672,8.92912305 84.2633033,8.34527583 86.3954922,8.34527583 C89.7906255,8.34527583 92.2780616,9.80507027 93.8962533,12.7666397 L89.5539116,15.2692453 C88.9220866,13.8514314 87.856345,13.142348 86.3954922,13.142348 C84.8556172,13.142348 84.1056116,13.7261953 84.1056116,14.8522619 C84.1056116,15.7282092 85.2898866,16.520548 87.6983005,17.1463758 C89.5539116,17.5633592 91.0144116,18.1891869 92.0805061,18.9818786 M108.267961,14.1015508 L103.806734,14.1015508 L103.806734,22.7777675 C103.806734,23.8205786 104.201845,24.4460536 104.95185,24.7378008 C105.504653,24.9466453 106.609906,24.988273 108.267961,24.9046647 L108.267961,29.7853453 C104.83367,30.2023286 102.346234,29.8686008 100.885381,28.7421814 C99.4248808,27.6577425 98.7140336,25.6557286 98.7140336,22.7777675 L98.7140336,14.1015508 L95.2793891,14.1015508 L95.2793891,8.92912305 L98.7140336,8.92912305 L98.7140336,4.71625083 L103.806734,3.0895925 L103.806734,8.92912305 L108.267961,8.92912305 L108.267961,14.1015508 Z M124.495245,23.4866744 C125.521829,22.4018828 126.034767,21.0253439 126.034767,19.3570578 C126.034767,17.6887717 125.521829,16.3122328 124.495245,15.2277939 C123.468662,14.1430022 122.205365,13.6011355 120.66549,13.6011355 C119.125967,13.6011355 117.86267,14.1430022 116.836087,15.2277939 C115.849015,16.3538605 115.335723,17.7303994 115.335723,19.3570578 C115.335723,20.9840689 115.849015,22.3606078 116.836087,23.4866744 C117.86267,24.5711133 119.125967,25.1133328 120.66549,25.1133328 C122.205365,25.1133328 123.468662,24.5711133 124.495245,23.4866744 M113.243398,27.198955 C111.230095,25.071705 110.243023,22.4854911 110.243023,19.3570578 C110.243023,16.2702522 111.230095,13.6843911 113.243398,11.5571411 C115.256701,9.4298911 117.744137,8.34545222 120.66549,8.34545222 C123.587195,8.34545222 126.074279,9.4298911 128.087934,11.5571411 C130.10159,13.6843911 131.12782,16.3122328 131.12782,19.3570578 C131.12782,22.4438633 130.10159,25.071705 128.087934,27.198955 C126.074279,29.3265578 123.626706,30.3690161 120.66549,30.3690161 C117.704626,30.3690161 115.256701,29.3265578 113.243398,27.198955 M148.144444,23.6117342 C149.171028,22.4856675 149.683967,21.0675008 149.683967,19.3572342 C149.683967,17.6469675 149.171028,16.2288008 148.144444,15.1443619 C147.118214,14.0179425 145.815053,13.4760758 144.236019,13.4760758 C142.656633,13.4760758 141.353825,14.0179425 140.288083,15.1443619 C139.261853,16.2288008 138.748208,17.6469675 138.748208,19.3572342 C138.748208,21.0675008 139.261853,22.4856675 140.288083,23.6117342 C141.353825,24.696173 142.696144,25.2383925 144.236019,25.2383925 C145.815053,25.2383925 147.118214,24.696173 148.144444,23.6117342 M149.683967,0.586634166 L154.777019,0.586634166 L154.777019,29.7853453 L149.683967,29.7853453 L149.683967,27.3240147 C148.183955,29.3680091 146.051767,30.3691925 143.288458,30.3691925 C140.64333,30.3691925 138.353803,29.3263814 136.45868,27.1987786 C134.603069,25.0715286 133.655508,22.4436869 133.655508,19.3572342 C133.655508,16.3124092 134.603069,13.6842147 136.45868,11.5569647 C138.353803,9.42971472 140.64333,8.34527583 143.288458,8.34527583 C146.051767,8.34527583 148.183955,9.34645916 149.683967,11.3901008 L149.683967,0.586634166 Z M172.6625,23.4866744 C173.68873,22.4018828 174.202022,21.0253439 174.202022,19.3570578 C174.202022,17.6887717 173.68873,16.3122328 172.6625,15.2277939 C171.635917,14.1430022 170.372619,13.6011355 168.832744,13.6011355 C167.293222,13.6011355 166.029572,14.1430022 165.003342,15.2277939 C164.015917,16.3538605 163.502978,17.7303994 163.502978,19.3570578 C163.502978,20.9840689 164.015917,22.3606078 165.003342,23.4866744 C166.029572,24.5711133 167.293222,25.1133328 168.832744,25.1133328 C170.372619,25.1133328 171.635917,24.5711133 172.6625,23.4866744 M161.410653,27.198955 C159.396997,25.071705 158.410278,22.4854911 158.410278,19.3570578 C158.410278,16.2702522 159.396997,13.6843911 161.410653,11.5571411 C163.424308,9.4298911 165.911392,8.34545222 168.832744,8.34545222 C171.75445,8.34545222 174.241533,9.4298911 176.255189,11.5571411 C178.268844,13.6843911 179.295075,16.3122328 179.295075,19.3570578 C179.295075,22.4438633 178.268844,25.071705 176.255189,27.198955 C174.241533,29.3265578 171.793961,30.3690161 168.832744,30.3690161 C165.87188,30.3690161 163.424308,29.3265578 161.410653,27.198955 M201.325694,16.9795825 L201.325694,29.785063 L196.232642,29.785063 L196.232642,17.647038 C196.232642,16.2704992 195.877394,15.227688 195.1669,14.4353492 C194.495564,13.7262658 193.548003,13.3505575 192.324217,13.3505575 C189.442022,13.3505575 187.981522,15.0608242 187.981522,18.5229853 L187.981522,29.785063 L182.888469,29.785063 L182.888469,8.92919361 L187.981522,8.92919361 L187.981522,11.2649353 C189.205308,9.30454916 191.139589,8.34534638 193.864092,8.34534638 C196.035439,8.34534638 197.812028,9.09605749 199.193858,10.6394603 C200.614847,12.182863 201.325694,14.2684853 201.325694,16.9795825" id="Shape" fill="#1F232B"></path>
        </g>
    </g>
</svg>